<svg xmlns="http://www.w3.org/2000/svg" width="257.54mm" height="190.12mm" viewBox="0 0 730.04 538.93">
  <defs>
    <style>
      .cls-1 {
        fill: #1dcad3;
      }

      .cls-2 {
        fill: #1d1d1b;
      }

      .cls-3 {
        fill: none;
        stroke: #1dcad3;
        stroke-miterlimit: 10;
        stroke-width: 2.91px;
      }
    </style>
  </defs>
  <title>logo-dune-pebbler</title>
  <g id="Layer_2" data-name="Layer 2">
    <g id="Laag_1" data-name="Laag 1">
      <g>
        <path class="cls-1" d="M247,241.42V286c2.36-4.72,11.28-14.17,28.86-14.17,22.82,0,35.94,14.43,35.94,38v73.19c0,25.71-16.26,40.67-39.61,40.67h-40.4c-5.51,0-8.66-3.15-8.66-8.66V241.42c0-5.51,3.15-8.39,8.66-8.39h6.56C243.8,233,247,235.91,247,241.42ZM266.63,402.5c13.64,0,21.25-7.09,21.25-20.73V312.52c0-12.86-7.09-19.68-19.68-19.68-11.54,0-21,6.56-21,19.15V402.5Z"/>
        <path class="cls-1" d="M357.92,241.42V286c2.37-4.72,11.29-14.17,28.86-14.17,22.83,0,35.94,14.43,35.94,38v73.19c0,25.71-16.26,40.67-39.61,40.67h-40.4c-5.51,0-8.66-3.15-8.66-8.66V241.42c0-5.51,3.15-8.39,8.66-8.39h6.56C354.78,233,357.92,235.91,357.92,241.42ZM377.6,402.5c13.64,0,21.25-7.09,21.25-20.73V312.52c0-12.86-7.08-19.68-19.68-19.68-11.54,0-21,6.56-21,19.15V402.5Z"/>
        <path class="cls-1" d="M51.16,423.75c-17.06,0-24.93-7.35-27-10.76V530.27c0,5.51-3.15,8.66-8.66,8.66H8.66c-5.51,0-8.66-3.15-8.66-8.66V281.56c0-5.51,3.15-8.4,8.66-8.4h6.56c5.5,0,8.65,2.37,8.65,7.09v6c2.36-4.72,11.28-14.16,28.86-14.16,22.82,0,35.94,14.42,35.94,38V384.4C88.67,409.84,73.72,423.75,51.16,423.75Zm-6-20.73c12.6,0,19.68-6.56,19.68-19.41V312.78c0-12.86-7.08-19.42-19.68-19.42-11.54,0-21,6.3-21,19.16v71.35C24.14,396.73,33.58,403,45.12,403Z"/>
        <path class="cls-1" d="M134.41,355.28v28.85c0,12.86,6.55,21,21.51,21s21.51-7.87,21.51-20.2V382c0-5,3.15-8.14,8.66-8.14h6.29c5.51,0,8.4,2.89,8.4,7.87v2.63c0,25.71-15.74,42-44.86,42s-45.13-16.53-45.13-42.24V312.78c0-26,16-42.24,45.13-42.24s44.86,16.27,44.86,42.24v33.31c0,3.42-1.05,5.78-3.15,7.35a10.29,10.29,0,0,1-6,1.84Zm0-42.76v23.34h43V312.52c0-12.86-6.3-21-21.51-21S134.41,299.66,134.41,312.52Z"/>
        <path class="cls-1" d="M514.54,355.28v28.85c0,12.86,6.55,21,21.51,21s21.51-7.87,21.51-20.2V382c0-5,3.15-8.14,8.66-8.14h6.29c5.51,0,8.4,2.89,8.4,7.87v2.63c0,25.71-15.74,42-44.86,42s-45.12-16.53-45.12-42.24V312.78c0-26,16-42.24,45.12-42.24s44.86,16.27,44.86,42.24v33.31c0,3.42-1,5.78-3.15,7.35a10.31,10.31,0,0,1-6,1.84Zm0-42.76v23.34h43V312.52c0-12.86-6.3-21-21.51-21S514.54,299.66,514.54,312.52Z"/>
        <path class="cls-1" d="M650.43,296.77c-7.87,0-14.17,1.58-18.1,5.51-3.41,3.41-5,8.4-5,15.74v97.07c0,5.51-3.14,8.66-8.66,8.66h-6.82c-5.51,0-8.65-3.15-8.65-8.66V281.56c0-5.51,3.14-8.4,8.65-8.4h5.78c5.5,0,8.39,2.89,8.39,8.4v11a26.91,26.91,0,0,1,26.5-20.46c5.51,0,7.08,2.62,7.08,6.82v7.34C659.61,295.2,656.72,296.51,650.43,296.77Z"/>
        <g>
          <path class="cls-2" d="M110.84,495.61V457.12a1.7,1.7,0,0,1,1.92-1.86h1.45a1.7,1.7,0,0,1,1.92,1.86v10.53c.46-1.22,2.5-3.61,6.57-3.61,5,0,7.79,3.2,7.79,8.14v23.43a1.71,1.71,0,0,1-1.87,1.92h-1.51a1.75,1.75,0,0,1-1.92-1.92v-22.5c0-2.91-1.45-4.48-4.3-4.48-2.5,0-4.71,1.57-4.71,4.36v22.62a1.74,1.74,0,0,1-1.91,1.92h-1.51A1.74,1.74,0,0,1,110.84,495.61Z"/>
          <path class="cls-2" d="M159,472.59v23a1.74,1.74,0,0,1-1.91,1.92h-1.4a1.67,1.67,0,0,1-1.86-1.81v-1.57c-.58,1.63-2.5,3.72-6.57,3.72-5.52,0-8.37-3-8.37-8v-1.68c0-4.13,2.21-6.63,6.8-8.14l8-2.68v-4.76c0-2.85-1.27-4.3-4.65-4.3s-4.65,1.45-4.65,4.24v.29a1.64,1.64,0,0,1-1.86,1.8h-1.45c-1.22,0-1.92-.58-1.92-1.74v-.35c0-5.64,3.37-8.95,9.88-8.95S159,466.89,159,472.59Zm-5.29,16.33V482l-5.81,1.81c-2.79.93-3.78,2.21-3.78,4.41v1.28c0,2.5,1.34,4,4.42,4C152.34,493.51,153.73,491.48,153.73,488.92Z"/>
          <path class="cls-2" d="M180.18,497.53c-3.78,0-5.52-1.63-6-2.39v10.35a1.74,1.74,0,0,1-1.91,1.92h-1.52a1.74,1.74,0,0,1-1.91-1.92V466a1.7,1.7,0,0,1,1.91-1.86h1.46c1.22,0,1.92.52,1.92,1.57v1.33c.52-1,2.49-3.13,6.39-3.13,5.06,0,8,3.19,8,8.42v16.46C188.49,494.44,185.18,497.53,180.18,497.53Zm-1.34-4.6c2.79,0,4.36-1.45,4.36-4.3V472.94c0-2.85-1.57-4.31-4.36-4.31-2.55,0-4.65,1.4-4.65,4.25v15.81C174.19,491.54,176.29,492.93,178.84,492.93Z"/>
          <path class="cls-2" d="M209.42,497.53c-3.78,0-5.52-1.63-6-2.39v10.35a1.75,1.75,0,0,1-1.92,1.92H200a1.75,1.75,0,0,1-1.92-1.92V466a1.7,1.7,0,0,1,1.92-1.86h1.45c1.23,0,1.92.52,1.92,1.57v1.33c.53-1,2.5-3.13,6.4-3.13,5,0,8,3.19,8,8.42v16.46C217.73,494.44,214.42,497.53,209.42,497.53Zm-1.34-4.6c2.79,0,4.36-1.45,4.36-4.3V472.94c0-2.85-1.57-4.31-4.36-4.31-2.56,0-4.65,1.4-4.65,4.25v15.81C203.43,491.54,205.52,492.93,208.08,492.93Z"/>
          <path class="cls-2" d="M226,464.16h1.34a1.93,1.93,0,0,1,2.09,1.63l2.85,11.68c1.74,7.44,2.38,12.32,2.38,12.32s.76-4.88,2.39-12.32l2.67-11.68a1.89,1.89,0,0,1,2.09-1.63h1.28c1.34,0,2,.75,1.63,2.09l-7.56,31.51c-1.33,5.58-4.59,8.66-10,8.66h-.41a1.7,1.7,0,0,1-1.86-1.92v-.87c0-1.22.64-1.74,1.86-1.86l.35-.06c3-.12,4.65-2.44,4.65-5.29a14.19,14.19,0,0,0-.29-2.21l-7-28C224.07,464.91,224.71,464.16,226,464.16Z"/>
          <path class="cls-2" d="M279.23,488a1.7,1.7,0,0,1,1.86-1.92h1.45a1.75,1.75,0,0,1,1.92,1.92v.76c0,5.69-3.43,9.36-9.88,9.36s-9.94-3.67-9.94-9.36V472.94c0-5.76,3.43-9.36,9.94-9.36s9.88,3.6,9.88,9.36v.87a1.75,1.75,0,0,1-1.92,1.92h-1.45a1.7,1.7,0,0,1-1.86-1.92v-.87c0-2.85-1.4-4.6-4.65-4.6s-4.65,1.75-4.65,4.6v15.81c0,2.79,1.33,4.59,4.65,4.59s4.65-1.8,4.65-4.59Z"/>
          <path class="cls-2" d="M312.94,466v29.59a1.7,1.7,0,0,1-1.86,1.92H309.8a1.75,1.75,0,0,1-1.92-1.92V494.1c-.4,1.22-2.32,3.66-6.8,3.66-5.11,0-7.79-3.43-7.79-8.37V466a1.7,1.7,0,0,1,1.92-1.86h1.51a1.7,1.7,0,0,1,1.92,1.86v22.61c0,2.91,1.45,4.48,4.3,4.48,2.5,0,4.71-1.51,4.71-4.36V466a1.7,1.7,0,0,1,1.92-1.86h1.51A1.66,1.66,0,0,1,312.94,466Z"/>
          <path class="cls-2" d="M341.07,487.88v1.33c0,5.76-3.43,8.9-9.88,8.9s-9.71-3.2-9.71-8.9v-.11c0-1.22.53-1.92,1.86-1.92h1.46c1.33,0,1.86.7,1.86,2v.06c0,2.85,1.22,4.25,4.53,4.25s4.65-1.34,4.65-4.19v-1c0-1.86-.75-3.08-3-4.07l-5.93-2.84c-3.26-1.52-5.17-4-5.17-7.79v-1.11c0-5.64,3.13-8.89,9.59-8.89s9.53,3.19,9.53,8.77v.24c0,1-.52,1.68-1.8,1.68h-1.51c-1.34,0-1.92-.58-1.92-1.62v-.24c0-2.79-1-4.3-4.3-4.3s-4.36,1.51-4.36,4.3v.82c0,2.15.87,3.31,2.9,4.24l5.82,2.79C338.92,481.83,341.07,484.21,341.07,487.88Z"/>
          <path class="cls-2" d="M348.28,464.16h1.8l.87-4.77a2,2,0,0,1,2.27-1.63,1.75,1.75,0,0,1,1.92,1.92v4.48h4.53a1.7,1.7,0,0,1,1.92,1.86v.81a1.7,1.7,0,0,1-1.92,1.86h-4.53v20.46c0,2.62,1.05,3.78,3.49,3.78,1.92,0,3.48-.46,3.48,1.4v1.1c0,1.57-1.62,2.33-4.36,2.33-5.52,0-7.9-3.26-7.9-8.43V468.69h-1.57a1.7,1.7,0,0,1-1.92-1.86V466A1.7,1.7,0,0,1,348.28,464.16Z"/>
          <path class="cls-2" d="M378.27,498.11c-6.45,0-9.94-3.67-9.94-9.36V472.94c0-5.76,3.49-9.36,9.94-9.36s9.94,3.6,9.94,9.36v15.81C388.21,494.44,384.78,498.11,378.27,498.11Zm0-29.77c-3.25,0-4.65,1.75-4.65,4.6v15.81c0,2.79,1.4,4.59,4.65,4.59s4.71-1.8,4.71-4.59V472.94C383,470.09,381.59,468.34,378.27,468.34Z"/>
          <path class="cls-2" d="M397.8,495.61V466a1.7,1.7,0,0,1,1.92-1.86H401a1.66,1.66,0,0,1,1.86,1.86v1.57c.58-1.34,2.56-3.66,6.74-3.66,3.49,0,5.87,1.57,7,4.24a7.53,7.53,0,0,1,7.21-4.24c4.94,0,7.73,3.19,7.73,8.13v23.55a1.75,1.75,0,0,1-1.92,1.92h-1.51a1.7,1.7,0,0,1-1.86-1.92V473c0-2.84-1.45-4.41-4.3-4.41a4.28,4.28,0,0,0-4.59,4.41v22.62a1.75,1.75,0,0,1-1.92,1.92h-1.51a1.71,1.71,0,0,1-1.87-1.92V473c0-2.84-1.45-4.41-4.3-4.41-2.44,0-4.59,1.51-4.59,4.3v22.73a1.75,1.75,0,0,1-1.92,1.92h-1.51A1.75,1.75,0,0,1,397.8,495.61Z"/>
          <path class="cls-2" d="M460,472.59v23a1.75,1.75,0,0,1-1.92,1.92h-1.39a1.67,1.67,0,0,1-1.86-1.81v-1.57c-.59,1.63-2.5,3.72-6.57,3.72-5.53,0-8.37-3-8.37-8v-1.68c0-4.13,2.21-6.63,6.8-8.14l8-2.68v-4.76c0-2.85-1.28-4.3-4.65-4.3s-4.65,1.45-4.65,4.24v.29a1.64,1.64,0,0,1-1.86,1.8H442.1c-1.23,0-1.92-.58-1.92-1.74v-.35c0-5.64,3.37-8.95,9.88-8.95S460,466.89,460,472.59Zm-5.29,16.33V482l-5.81,1.81c-2.79.93-3.78,2.21-3.78,4.41v1.28c0,2.5,1.33,4,4.42,4C453.31,493.51,454.71,491.48,454.71,488.92Z"/>
          <path class="cls-2" d="M480.28,469.39a5.56,5.56,0,0,0-4,1.22,4.69,4.69,0,0,0-1.1,3.49v21.51a1.75,1.75,0,0,1-1.92,1.92h-1.51a1.75,1.75,0,0,1-1.92-1.92V466a1.7,1.7,0,0,1,1.92-1.86H473a1.66,1.66,0,0,1,1.86,1.86v2.44a6,6,0,0,1,5.87-4.53c1.22,0,1.57.58,1.57,1.51v1.62C482.32,469,481.68,469.33,480.28,469.39Z"/>
          <path class="cls-2" d="M490.92,455.26h1.51a1.66,1.66,0,0,1,1.86,1.86v38.49a1.7,1.7,0,0,1-1.86,1.92h-1.51a1.75,1.75,0,0,1-1.92-1.92V457.12A1.7,1.7,0,0,1,490.92,455.26Zm16.22,11.11-6.05,13.77,6.51,15.18c.59,1.33-.05,2.21-1.39,2.21h-1.75a2,2,0,0,1-2.15-1.52L496,481.48a3.25,3.25,0,0,1,0-2.56L502,465.61a2.13,2.13,0,0,1,2.15-1.45h1.57C507.14,464.16,507.72,465,507.14,466.37Z"/>
          <path class="cls-2" d="M520,482.35v6.4c0,2.85,1.46,4.65,4.77,4.65s4.77-1.75,4.77-4.48v-.64a1.71,1.71,0,0,1,1.91-1.8h1.4a1.63,1.63,0,0,1,1.86,1.74v.59c0,5.69-3.49,9.3-9.94,9.3s-10-3.67-10-9.36V472.94c0-5.76,3.55-9.36,10-9.36s9.94,3.6,9.94,9.36v7.38a1.88,1.88,0,0,1-.7,1.63,2.29,2.29,0,0,1-1.34.4Zm0-9.47v5.17h9.54v-5.17c0-2.85-1.4-4.65-4.77-4.65S520,470,520,472.88Z"/>
          <path class="cls-2" d="M543.12,464.16h1.8l.87-4.77a2,2,0,0,1,2.27-1.63,1.75,1.75,0,0,1,1.92,1.92v4.48h4.53a1.7,1.7,0,0,1,1.92,1.86v.81a1.7,1.7,0,0,1-1.92,1.86H550v20.46c0,2.62,1,3.78,3.49,3.78,1.91,0,3.48-.46,3.48,1.4v1.1c0,1.57-1.62,2.33-4.36,2.33-5.52,0-7.9-3.26-7.9-8.43V468.69h-1.57a1.7,1.7,0,0,1-1.92-1.86V466A1.7,1.7,0,0,1,543.12,464.16Z"/>
          <path class="cls-2" d="M566.77,460.85c-2.38,0-3.19-1.28-3.19-3s.81-3,3.19-3,3.14,1.28,3.14,3S569.1,460.85,566.77,460.85Zm-.81,3.66h1.51a1.74,1.74,0,0,1,1.92,1.92v29.18a1.75,1.75,0,0,1-1.92,1.92H566a1.75,1.75,0,0,1-1.92-1.92V466.43A1.74,1.74,0,0,1,566,464.51Z"/>
          <path class="cls-2" d="M579.5,495.61V466a1.7,1.7,0,0,1,1.92-1.86h1.28a1.66,1.66,0,0,1,1.86,1.86v1.57c.58-1.34,2.68-3.66,6.8-3.66,5,0,7.79,3.19,7.79,8.13v23.55a1.7,1.7,0,0,1-1.86,1.92h-1.51a1.75,1.75,0,0,1-1.92-1.92V473c0-2.84-1.45-4.41-4.3-4.41-2.5,0-4.71,1.51-4.71,4.3v22.73a1.75,1.75,0,0,1-1.92,1.92h-1.51A1.75,1.75,0,0,1,579.5,495.61Z"/>
          <path class="cls-2" d="M628,466.25a3.78,3.78,0,0,0-2.15.58,8.6,8.6,0,0,1,1.63,5.41v4.88c0,5.29-3.2,8.66-10.17,8.66-1.75,0-2.56.88-2.56,2.62,0,1.57.81,2.27,3.37,2.27h3.31c5.76,0,8.26,2.32,8.26,6.91v1c0,4.77-3.2,7.79-11.05,7.79h-2.27a21.05,21.05,0,0,1-8.19-1.34,2.07,2.07,0,0,1-1.34-2.15v-1.1c0-1.4,1-1.8,2.27-1.28a19,19,0,0,0,7.15,1.28h1.86c4.94,0,6.45-1.22,6.45-3.31V498c0-1.69-.46-2.85-3.54-2.85h-3.61c-4.82,0-7.5-1.63-7.5-5v-.93a4,4,0,0,1,3.2-3.95c-4.07-1.1-6-4.07-6-8.14v-4.88c0-5.35,3.2-8.66,10.18-8.66a12.72,12.72,0,0,1,6.39,1.39,5,5,0,0,1,4.77-3.72c1.22,0,1.62.47,1.62,1.46v1.62C630.13,465.55,629.67,466.25,628,466.25Zm-5.75,5.93c0-2.79-1.52-4.24-4.94-4.24s-5,1.45-5,4.24v4.94c0,2.79,1.52,4.25,5,4.25s4.94-1.46,4.94-4.25Z"/>
        </g>
        <g>
          <circle class="cls-3" cx="711.23" cy="283.14" r="17.35"/>
          <path class="cls-1" d="M716.17,294.36h-1a1.36,1.36,0,0,1-1.39-1l-2.65-7.65h-2.76v7.59a1,1,0,0,1-1.06,1.09h-.89a1,1,0,0,1-1.1-1.09V273a1,1,0,0,1,1.1-1.06h4.51c4.07,0,6,2.22,6,5.37v3a4.88,4.88,0,0,1-2.81,4.77l2.95,8C717.3,293.83,717,294.36,716.17,294.36ZM710.94,283c2.08,0,2.91-1,2.91-2.69v-3c0-1.62-.83-2.72-2.91-2.72h-2.56V283Z"/>
        </g>
        <path class="cls-2" d="M380.22,249.34V115.81c0-5.51,3.15-8.4,8.66-8.4h5.77c5.51,0,8.39,2.89,8.39,8.4v7.08c2.63-6,12.07-16.52,30.7-16.52,22.56,0,35.15,14.42,35.15,36.72V249.34c0,5.51-2.88,8.66-8.39,8.66h-6.82c-5.51,0-8.66-3.15-8.66-8.66V147.29c0-12.85-6.56-19.94-19.41-19.94-11.28,0-21.25,6.82-21.25,19.42V249.34c0,5.51-3.15,8.66-8.66,8.66h-6.82C383.37,258,380.22,254.85,380.22,249.34Z"/>
        <path class="cls-2" d="M514.54,189.53v28.85c0,12.86,6.55,21,21.51,21s21.51-7.87,21.51-20.2v-2.88c0-5,3.15-8.14,8.66-8.14h6.29c5.51,0,8.4,2.89,8.4,7.87v2.63c0,25.71-15.74,42-44.86,42s-45.12-16.53-45.12-42.24V147c0-26,16-42.24,45.12-42.24s44.86,16.27,44.86,42.24v33.31c0,3.42-1,5.78-3.15,7.35a10.31,10.31,0,0,1-6,1.84Zm0-42.76v23.34h43V146.77c0-12.86-6.3-21-21.51-21S514.54,133.91,514.54,146.77Z"/>
        <path class="cls-2" d="M349.26,107.26h-6.55c-5.51,0-8.66,2.88-8.66,8.39V218.38c0,12.86-10,19.68-21.25,19.68-12.85,0-19.41-7.08-19.41-20.2V115.81c0-5.51-3.15-8.4-8.66-8.4h-6.82c-5.51,0-8.66,2.89-8.66,8.4V221.27c0,22.3,12.07,37.78,35.15,37.78,17.63,0,26.46-8.39,29.65-14.19v4.48c0,5.51,3.15,8.66,8.66,8.66h6.82c5.51,0,8.39-3.15,8.39-8.66V115.65C357.92,110.14,354.77,107.26,349.26,107.26Z"/>
        <path class="cls-2" d="M238.56,0h-6.82c-5.51,0-8.66,2.89-8.66,8.39V120.53c-1.58-3.42-9.71-12.59-27.28-12.59-22.3,0-37.52,14.17-37.52,39.61v72.93c0,23.61,12.86,38.57,36.21,38.57,17.48,0,25.91-9.06,28.59-13.93v4.22a11.4,11.4,0,0,0,.4,3.09c.59,3.24,3.17,5.22,7.16,5.52h.11l.4,0,.59,0h6.82c5.51,0,8.39-3.15,8.39-8.66V8.39C247,2.89,244.07,0,238.56,0ZM202.09,237.8c-12.59,0-19.67-6.56-19.67-19.68V148.34c0-12.86,7.08-19.41,19.67-19.41,11.52,0,20.94,6.26,21,19v70.76C223,231.27,213.61,237.8,202.09,237.8Z"/>
        <path class="cls-1" d="M453.68,233h6.55c5.51,0,8.66,2.88,8.66,8.39V415.13c0,5.51-3.15,8.66-8.66,8.66h-6.55c-5.51,0-8.66-3.15-8.66-8.66V241.42C445,235.91,448.17,233,453.68,233Z"/>
      </g>
    </g>
  </g>
</svg>
